<?xml version="1.0" encoding="UTF-8" standalone="no"?>
<!-- Generator: Adobe Illustrator 21.0.2, SVG Export Plug-In . SVG Version: 6.00 Build 0)  -->

<svg
   xmlns:dc="http://purl.org/dc/elements/1.1/"
   xmlns:cc="http://creativecommons.org/ns#"
   xmlns:rdf="http://www.w3.org/1999/02/22-rdf-syntax-ns#"
   xmlns:svg="http://www.w3.org/2000/svg"
   xmlns="http://www.w3.org/2000/svg"
   xmlns:sodipodi="http://sodipodi.sourceforge.net/DTD/sodipodi-0.dtd"
   xmlns:inkscape="http://www.inkscape.org/namespaces/inkscape"
   version="1.1"
   x="0px"
   y="0px"
   viewBox="0 0 200 308.00001"
   xml:space="preserve"
   id="svg398"
   sodipodi:docname="IlustrasISA_recortado-03.svg"
   width="200"
   height="308"
   inkscape:version="0.92.0 unknown"><metadata
     id="metadata404"><rdf:RDF><cc:Work
         rdf:about=""><dc:format>image/svg+xml</dc:format><dc:type
           rdf:resource="http://purl.org/dc/dcmitype/StillImage" /><dc:title></dc:title></cc:Work></rdf:RDF></metadata><defs
     id="defs402" /><sodipodi:namedview
     pagecolor="#ffffff"
     bordercolor="#666666"
     borderopacity="1"
     objecttolerance="10"
     gridtolerance="10"
     guidetolerance="10"
     inkscape:pageopacity="0"
     inkscape:pageshadow="2"
     inkscape:window-width="1256"
     inkscape:window-height="1028"
     id="namedview400"
     showgrid="false"
     inkscape:zoom="0.46084751"
     inkscape:cx="-179.57773"
     inkscape:cy="256.04999"
     inkscape:window-x="47"
     inkscape:window-y="24"
     inkscape:window-maximized="0"
     inkscape:current-layer="svg398" /><style
     type="text/css"
     id="style2">
	.st0{fill:#FFFFFF;}
	.st1{fill:#A3A5D0;}
	.st2{fill:#FACBC0;}
	.st3{fill:#893886;}
	.st4{fill:#DCAAC3;}
	.st5{fill:#FFAFBB;}
	.st6{fill:#B590C2;}
	.st7{fill:#F6AECD;}
	.st8{fill:#FDBD6F;}
	.st9{fill:#893886;stroke:#893886;stroke-miterlimit:10;}
	.st10{fill:#A7CBEB;}
	.st11{fill:#A4CBE8;}
</style><g
     id="Layer_2"
     transform="translate(0,-204.09998)" /><g
     id="Layer_3"
     transform="translate(0,-204.09998)" /><g
     id="Layer_1"
     transform="translate(-154.06398,-102.11397)"><polygon
       class="st0"
       points="212.1,290.2 218.1,282.4 223.6,273 226.9,264.2 231.2,250 233.2,238.2 235.2,221.3 237.3,192.8 237.2,176.9 239.5,157.9 244.2,141.7 250.3,133.1 257.4,127.7 265.7,124.3 267,123.8 269.2,119.5 276.2,111.9 282.6,108.4 286.9,106.8 289.1,108.2 287.9,112 281.8,117.2 276.8,120.7 277.5,121.2 282.4,119.5 287.9,120 291.6,121.7 292.5,123.6 300.1,126.4 309.8,131.3 317.6,141.7 321.1,148.8 325,165.2 326.8,189.5 327.3,218.7 329.8,248.4 334,278.4 339.3,289.7 346.2,304.6 351.5,330.2 350.5,339.7 346.8,351.2 336.2,361.1 330.8,364.3 323.2,372.7 313.3,381.1 299.3,386.7 290.2,391.3 285.6,396.1 280.6,392.5 272,390.2 261.7,391 253.2,396.9 250.5,393.4 238.8,390.1 219.8,379.3 208.4,368.4 205.2,367.7 181.8,362.2 168.2,352.2 164.2,348.2 160,337.6 170.4,336.1 172.5,334.7 169.9,330.8 162.6,317.6 160.8,304.2 165.5,303.2 171.6,307.7 173.2,307.2 173.6,303.1 176.8,301.8 179,304.3 180.4,305.2 182.5,304 185.4,304.6 190.5,310.7 193.1,311 202.3,298.7 "
       id="polygon6"
       style="fill:#ffffff" /><g
       id="g394"><path
         class="st1"
         d="m 350.9,336.7 c -0.3,-2.7 -3.9,-4.3 -5.4,-1.5 -0.4,0.7 -0.8,2.8 -1.7,2.9 -0.7,0.1 -2.4,-3.9 -2.7,-4.7 -0.5,-1.1 -2.4,-1.5 -2.7,0 -0.3,1.9 -0.3,4.1 0.4,5.9 -0.2,-0.1 -0.3,-0.1 -0.5,-0.1 -0.1,-0.8 -1.4,-1 -1.8,-0.1 -1.5,3.6 -7.5,6.3 -10.6,8.1 -3.7,2 -7.1,4.1 -11,5.7 -7,2.9 -14.2,3.7 -21.6,4.7 -8.3,1.1 -17.9,1.8 -26.2,0.4 -3.5,-0.6 -6.8,-1.1 -10.1,-2.4 -2.3,-0.9 -9.6,-2.8 -10.4,-5.9 0.1,-1.3 0.1,-2.5 0.1,-3.5 -0.1,-6.2 -0.3,-12.7 -1.4,-18.8 -1.3,-7.5 -3,-14.8 -5.1,-22.1 -1,-3.5 -1.8,-7 -3.2,-10.5 -1.2,-2.9 -3.3,-5.5 -4.5,-8.3 -0.4,-1.1 -1.9,-0.7 -1.7,0.5 0.8,6 3.5,11.9 4.7,18 1.3,6.4 1.9,12.9 3.1,19.4 1.1,5.3 1.7,11 2,16.4 0.2,3.4 0.5,7.3 -0.2,10.7 -0.4,-0.3 -0.8,-0.7 -1.1,-1.1 -0.7,-0.8 -1.8,0.1 -1.7,1 0.1,0.4 0.2,0.8 0.4,1.2 -1.1,2.9 -2.1,5.6 -3.7,7.8 -0.2,0 -0.3,0 -0.5,0 -1.1,0.2 -2.5,1 -3.5,1.5 -1.6,0.8 -3.1,1.3 -4.7,2 -1.2,0.5 -4.7,1.4 -5.1,3.1 -0.1,0 -0.2,0 -0.2,0 -2.5,0.1 -5,0.2 -7.5,0.2 -2.9,0 -3.2,4.1 -0.7,4.8 1.3,2.6 3.9,4.5 6,6.4 2.9,2.6 7.2,3.9 10.7,5.5 3.4,1.5 6.4,4 9.9,5.2 3.7,1.2 11.6,0.7 13.8,4.4 0.5,0.9 1.9,0.9 2.5,0 l 0.2,-0.4 c 5.6,-0.9 10.7,-3.8 16.5,-3.9 4,-0.1 6.7,0.7 9.9,3.1 1.5,1.1 2.6,2.2 4.4,2.4 0.9,0.1 1.8,-1 1.5,-1.9 0,0 0,-0.1 0,-0.1 1.2,-3.2 5.7,-4.2 8.5,-5.2 2.5,-0.9 4.8,-2 7.1,-3.3 5,-2.8 10,-5.1 14.9,-8 4.8,-2.9 7.6,-5.9 10.4,-10.8 1.9,-3.2 4.2,-6.6 5.9,-10.1 0,0.4 0,0.8 0,1.2 0.2,1.3 1.1,2.2 2.5,1.9 0.2,0 0.4,-0.1 0.6,-0.2 0.8,1.5 2.5,2.5 4.1,1.3 2.7,-1.9 3.4,-5.5 4.5,-8.4 1.7,-4.6 5.4,-9.4 4.9,-14.4 z m -60.3,24.9 c -8.8,0.9 -18.2,0.5 -27,-0.6 -5,-0.6 -10.6,-1.5 -14.9,-4.2 -0.8,-0.5 -1.8,-1.1 -2.8,-1.7 0.2,-0.9 0.4,-1.9 0.5,-2.8 3.2,3.5 12,6.1 14.6,6.7 9.8,2.2 20.7,1.7 30.7,0.8 8.2,-0.7 16.4,-2 24.1,-5.2 0.2,-0.1 0.5,-0.2 0.7,-0.3 -0.1,0.1 -0.3,0.1 -0.4,0.2 -7.7,4.1 -16.9,6.2 -25.5,7.1 z M 327.2,349 c -1,0.5 -2,1 -2.9,1.4 1.8,-1 3.5,-1.9 5.2,-3 0.7,-0.4 1.6,-0.9 2.4,-1.4 -1.3,1.1 -2.8,2.1 -4.7,3 z"
         id="path8"
         inkscape:connector-curvature="0"
         style="fill:#a3a5d0" /><path
         class="st1"
         d="m 224.7,358.4 c -4.5,-0.4 -8.9,1.6 -13.5,1.4 -0.1,0 -0.2,0 -0.3,0 -0.4,-0.2 -0.8,-0.4 -1.2,-0.4 -1.6,-0.1 -3,-0.1 -4.4,-0.3 -3.7,-0.7 -7.4,-1.7 -10.7,-3.1 -4.9,-2 -10.2,-3.4 -14.8,-5.9 -1.4,-0.7 -2.8,-1.5 -4.1,-2.3 -2,-3.2 -2.7,-6.9 -3.7,-10.6 -0.2,-0.6 -0.8,-1 -1.3,-0.9 -0.6,-0.7 -1.6,-0.9 -2.7,-0.6 -0.7,0.2 -1.2,0.7 -1.7,1.3 -1.4,-0.4 -2.7,-0.5 -4.1,0.2 -1.1,0.6 -1.4,1.8 -1.2,2.9 1.7,9.4 13.1,16.1 21.2,19.2 5.7,2.2 11.5,3.2 17.3,5.1 2.1,0.7 4.8,1.2 7.3,0.9 5.8,0.8 17.2,1.7 19.8,-4.7 0.3,-1.1 -0.9,-2.2 -1.9,-2.2 z"
         id="path10"
         inkscape:connector-curvature="0"
         style="fill:#a3a5d0" /><path
         class="st1"
         d="m 180,327.5 c -1.7,-1.8 -4.1,-2.9 -5.8,-4.8 -3.9,-4.2 -8.5,-10.4 -9.2,-16.2 -0.2,-1.5 -2.1,-2.3 -3,-0.8 -2.2,3.8 -0.7,8 1.5,11.8 1.1,7.6 5.1,15.7 12.4,17.2 0.9,0.2 2,0.1 2.6,-0.7 0.2,-0.2 0.3,-0.4 0.5,-0.6 0.3,-0.3 0.4,-0.7 0.5,-1.1 0.8,-0.4 1.4,-1.1 1.6,-1.8 0.2,-1.3 -0.3,-2.2 -1.1,-3 z"
         id="path12"
         inkscape:connector-curvature="0"
         style="fill:#a3a5d0" /><path
         class="st2"
         d="m 291.2,176.4 c -2.8,-2.3 -6,-2.4 -9.3,-1.7 -0.4,-1.5 -2.2,-1.4 -3.3,-1 -0.5,0.2 -1,0.5 -1.5,0.8 -0.3,0.2 -0.5,0.4 -0.8,0.7 -0.3,0.3 -0.4,0.7 -0.6,1 -0.3,0.4 -0.3,0.9 -0.1,1.2 -0.6,0.6 -0.9,1.3 -0.5,2 0.2,0.4 0.7,0.3 1,0 0.2,-0.3 1.2,-0.5 1.8,-0.6 0,0 0,0 0,0 -0.1,0.1 -0.1,0.2 -0.2,0.3 0,0 -0.1,0 -0.1,0 -0.1,0 -0.2,0 -0.4,0 -0.9,0.2 0.5,-0.1 0,0 -0.4,0.1 -0.6,0.2 -0.8,0.6 -0.3,0.5 -0.3,1 -0.3,1.5 0.1,1 0.3,2.4 1.2,3.1 0.1,0.4 0.2,0.8 0.4,1.2 0.6,1.3 1.6,3.9 3.1,4.2 0.3,0.1 0.6,-0.1 0.6,-0.4 0.2,-1.4 -0.4,-3 -0.7,-4.3 -0.2,-0.9 -0.6,-1.6 -0.6,-2.5 0,-1.1 0,-2.2 -0.1,-3.3 0,-0.4 -0.3,-0.7 -0.6,-0.9 0.9,-0.1 1.7,-0.1 2.6,-0.2 2.5,-0.1 4.4,0.3 6.6,1.4 2,1.1 4.5,-1.5 2.6,-3.1 z"
         id="path14"
         inkscape:connector-curvature="0"
         style="fill:#facbc0" /><path
         class="st1"
         d="m 297.3,124.4 c -1.3,-0.9 -2.9,-0.6 -4.4,-0.6 -1.5,0 -2.7,0 -3.9,0.7 -0.5,0 -1,0.1 -1.5,0.2 -0.9,0.3 -2,0.3 -2.5,1.4 -0.4,0.9 0.1,2.1 1,2.3 -0.3,0.4 -0.5,1 -0.5,1.6 0,1.1 0.5,2.3 1.1,3.5 -0.5,0 -0.9,0.1 -1.3,0.5 -0.3,0.3 -0.4,0.7 -0.4,1.1 -0.4,-0.4 -0.8,-0.8 -1.1,-1 -0.6,-0.5 -1.7,-0.1 -1.4,0.8 0.6,2 2.4,4.2 4.6,4.7 1.7,0.5 3.1,-0.5 3.4,-2.2 0.4,-0.4 0.5,-1.2 0.2,-1.8 -0.1,-0.2 -0.3,-0.4 -0.4,-0.6 -0.1,-0.3 -0.2,-0.6 -0.3,-0.9 -0.2,-0.6 -1.5,-3.2 -1.3,-3.8 0.2,-0.5 3.6,-1 4.3,-1.2 1.5,-0.5 3.2,-0.8 4.6,-1.6 1.1,-0.5 0.9,-2.3 -0.2,-3.1 z"
         id="path16"
         inkscape:connector-curvature="0"
         style="fill:#a3a5d0" /><path
         class="st1"
         d="m 329.1,195 c -0.1,-0.7 -0.5,-1.6 -1.3,-1.7 -3.6,-0.6 -7.2,1.2 -10.9,1.5 -4.4,0.4 -12.1,0.8 -14.7,-3.6 -2.3,-4 -2.1,-9.7 -3.1,-14.1 -0.9,-4.3 -1.6,-8.3 -1.4,-12.5 0.9,-1.2 1.5,-2.6 2.6,-3.7 2.3,-2.2 5,-3.2 8.1,-3.8 4.1,-0.8 8.4,-0.3 12.5,-1.2 2.6,-0.6 2.5,-4.5 0,-5.2 -7.5,-1.9 -27.4,1.4 -27.3,11.9 -3.4,-2.3 -8.5,-2.7 -12.3,-2.5 -2.1,0.1 -4.4,0.3 -6.4,1.2 -1.2,0.5 -2.1,1.5 -3.4,1.8 -0.9,0.2 -0.9,1.6 0,1.9 2.5,0.7 5.4,-0.4 7.9,-0.4 3,-0.1 5.7,0.3 8.6,1 1.7,0.4 3.3,1.1 5,1.3 -0.5,3.6 -0.1,7.4 0.4,11 0.9,6.4 0.9,13.7 5.3,19 3.8,4.5 12.5,4.5 17.9,4.1 3.4,-0.4 13,-0.8 12.5,-6 z"
         id="path18"
         inkscape:connector-curvature="0"
         style="fill:#a3a5d0" /><path
         class="st1"
         d="m 268.3,157.7 c -1.2,-3.8 -5.1,-5.8 -8.6,-7 -4.5,-1.6 -17,-5.4 -19.1,1.3 -0.3,1 0.4,2.1 1.3,2.3 1.7,0.4 3.7,0.1 5.5,0.2 3.6,0.2 6.9,0.5 10.3,1.8 0.6,0.2 2,0.7 2.6,1.1 2.9,2.1 2.4,4 2.3,6.9 -0.2,3.4 -0.7,6.7 -1.2,10.1 -0.8,5.2 -2.2,13.9 -6.9,17 -5.3,3.5 -12.6,2.2 -18.4,3.8 -1.1,0.3 -1.1,2 0,2.3 6.9,1.9 18.4,2.9 23.9,-2.9 5.6,-5.8 7,-15.9 8,-23.5 0.5,-4.2 1.5,-9.4 0.3,-13.4 z"
         id="path20"
         inkscape:connector-curvature="0"
         style="fill:#a3a5d0" /><path
         class="st1"
         d="m 332.7,265.3 c -0.2,-0.7 -1.3,-0.8 -1.6,0 -0.7,2.5 -2.9,4.7 -4.2,6.8 -1.3,2.1 -3,4.2 -4.1,6.4 -1.1,0.9 -2.1,1.7 -2.9,2.2 -3.4,2.4 -6.9,4.9 -10.4,7.3 -4.5,3.2 -8.7,5.5 -14.2,6.9 -0.1,0 -0.3,0.1 -0.4,0.1 1.1,-0.4 2.3,-1 3.4,-1.5 5.9,-2.7 11.7,-6.5 16.8,-10.6 4.8,-4 9.2,-8.1 12.9,-13.1 2.8,-3.8 5.2,-9.3 3.6,-13.9 -0.3,-0.8 -1.1,-1.3 -1.9,-1.4 -0.2,-2 0.1,-5 -0.1,-6.1 -0.8,-4.1 -0.6,-8.5 -1.7,-12.5 0,-0.1 -0.1,-0.2 -0.2,-0.3 0.8,-1.8 1.4,-3.7 1.5,-5.7 0.1,-1.5 -1.8,-2.6 -3.1,-1.8 -2.6,1.8 -4,5.3 -5.6,8.1 -0.6,0.8 -1.1,1.7 -1.6,2.7 -0.2,0.3 -0.3,0.5 -0.5,0.8 0,0 -0.1,0.1 -0.1,0.1 -1.4,2 -3.2,3.2 -5.3,4.5 -4.6,2.9 -8.8,6.9 -14.1,8.5 -9.8,3.1 -19.2,-0.3 -28.6,-2.9 -3.9,-1.1 -7.8,-1.6 -11.5,-3.7 -3.8,-2.2 -8.2,-5.5 -11.2,-8.8 -2.8,-3.2 -6.4,-5.5 -8.9,-9 -1.6,-2.3 -3.1,-5.7 -6.1,-6.2 -0.9,-0.1 -1.3,1.1 -0.4,1.4 1.1,0.3 2.4,2.1 3.5,3.8 -0.6,-0.6 -1.3,-1.1 -1.5,-1.7 -0.4,-0.9 -1.7,-0.8 -1.7,0.2 -0.1,1.6 0.7,2.8 1.5,4.2 0.6,1 1.1,2 1.8,2.9 -1.2,-0.8 -3,0.6 -2.6,2 0,0.1 0,0.2 0.1,0.2 -0.3,0.3 -0.7,0.7 -0.9,1.2 -1.5,2.9 -1.5,6.7 -2.3,9.8 -0.6,2.2 -1.1,5.1 -0.5,7.4 -0.3,0 -0.6,0.2 -0.8,0.6 0,0.1 -0.1,0.2 -0.1,0.3 -0.2,0.5 0.2,0.9 0.6,1 2.9,4.7 5.4,9.7 8.5,14.3 3.4,5.2 7.1,9.2 11.9,13.3 4.2,3.6 9.5,6.1 14.3,8.9 2.3,1.4 4.9,1.9 7.4,2.7 2.4,0.7 4.6,2 7,2.7 6.3,1.7 13.6,-0.3 19.8,-1.6 5.4,-1.1 9.7,-4.9 14.1,-8.1 4,-2.8 8.7,-5.3 12,-8.9 1.8,-2 5.2,-5 5.5,-7.9 1.6,-1.4 3.5,-3.7 2.9,-5.6 z m -62.6,28 c -3.2,-0.9 -5.6,-2.3 -8.4,-3.9 -4.5,-2.6 -9.4,-6.2 -13.2,-9.7 -4.1,-3.8 -8,-7.9 -10.5,-13 -1.2,-2.3 -1.6,-4.3 -3.1,-6.5 -0.7,-1 -1.4,-2.1 -2.1,-3.2 0.5,0.2 1.1,0.3 1.7,0.3 1.3,2.1 2.6,4.1 3.9,5.8 3.9,5.4 8.2,10.8 12.7,15.7 4.4,4.7 9.4,9.6 15.2,12.5 1.5,0.8 3,1.4 4.4,1.9 -0.2,0.2 -0.4,0.2 -0.6,0.1 z M 282.7,257 c -10.4,0 -21.7,-4.8 -29.2,-12 -3.3,-3.2 -6.8,-6.3 -10,-9.6 2.9,2.4 5.8,5.1 8.7,7.6 3,2.7 5.6,5.2 9.4,6.7 4.3,1.7 9,2.3 13.5,3.5 4.4,1.2 8,2.3 12.6,2.7 1.7,0.1 3.4,0.1 5,0.1 -3.4,0.6 -6.8,1 -10,1 z"
         id="path22"
         inkscape:connector-curvature="0"
         style="fill:#a3a5d0" /><path
         class="st5"
         d="m 287.4,179.3 c -1.2,-0.5 -2.8,-0.6 -4,-0.8 -1.3,-0.3 -2.7,-0.3 -4,-0.1 -1.4,0.2 -3,1 -3.2,2.4 -0.6,0.8 -0.9,1.7 -0.8,2.6 0.2,1.1 1.2,1.8 2,2.4 0.1,0.1 0.2,0.2 0.4,0.3 0.1,0.3 0.1,0.5 0.2,0.8 0.1,0.4 0.4,0.8 0.7,1.1 0,0 0.9,0.7 0.6,0.4 0.3,0.3 0.3,0.7 0.6,1 0.3,0.3 0.7,0.5 1,0.6 0.8,0.3 1.6,0.1 2.3,-0.2 0.1,-0.1 0.2,-0.1 0.3,-0.2 0.8,-0.2 1.4,-0.8 2,-1.4 0.5,-0.6 0.9,-1.4 1.3,-2 0.5,-0.7 1.1,-1.2 1.5,-2 1.3,-1.8 1.1,-4 -0.9,-4.9 z m -5,9.2 c 0,-0.2 0,-0.4 0,-0.5 0,-0.5 0.6,-0.7 0.9,-0.4 0.3,0.2 0.4,0.6 0.4,0.9 0.1,0.9 -1.2,0.9 -1.3,0 z m 1.4,-2.3 c -0.2,0.8 -1.3,0.7 -1.5,0 -0.4,-1.1 -0.2,-2.5 -0.2,-3.7 0,-0.7 -0.1,-2 0.5,-2.5 0.1,-0.1 0.3,-0.1 0.4,0 0.5,0.6 0.4,1.8 0.5,2.5 0.1,1.2 0.5,2.6 0.3,3.7 z"
         id="path24"
         inkscape:connector-curvature="0"
         style="fill:#ffafbb" /><g
         id="g30"><path
           class="st5"
           d="m 243.6,188.7 c -0.1,-2.6 -1.8,-6.3 -4.6,-6.1 -0.1,-0.1 -0.2,-0.1 -0.3,-0.1 -1.2,-0.5 -2.6,0.1 -2.6,1.5 0,3.7 0.5,7.4 0,11 -0.1,1 1,2.1 2,2 3.7,-0.5 5.7,-4.9 5.5,-8.3 z"
           id="path26"
           inkscape:connector-curvature="0"
           style="fill:#ffafbb" /><path
           class="st5"
           d="m 326.4,192.9 c 0.2,-2.5 1.8,-7.7 -0.2,-10.2 0.5,-0.4 0.8,-1.3 0.2,-1.8 -3.9,-3.2 -6.7,3.3 -7.2,6.2 -0.8,4.3 1,8 5.1,9.4 2,0.7 3,-1.7 2,-3.2 0.1,-0.1 0.1,-0.2 0.1,-0.4 z"
           id="path28"
           inkscape:connector-curvature="0"
           style="fill:#ffafbb" /></g><g
         id="g36"><g
           id="g34"><path
             class="st3"
             d="m 266.7,123.4 c -31.3,5.8 -30.7,42.9 -31.7,67.9 -0.7,18.5 -3.5,36.7 -6.3,54.9 -1.3,8.6 -1.7,17.4 -5.5,25.4 -3.7,8 -9,15 -15,21.4 -0.7,0.7 0.4,1.8 1.1,1.1 9.8,-10 17.6,-22.9 20.7,-36.7 3.8,-16.5 5.9,-33.8 7.3,-50.7 2.3,-27.6 -4.8,-72.2 29.5,-82.1 1,-0.3 0.7,-1.4 -0.1,-1.2 z"
             id="path32"
             inkscape:connector-curvature="0"
             style="fill:#893886" /></g></g><g
         id="g42"><g
           id="g40"><path
             class="st3"
             d="m 229.2,276.7 c 1.2,7.6 3.4,15 5.2,22.5 1.9,7.8 2.5,15.6 2.7,23.6 0.2,10.8 3.6,27.4 -5.9,35.3 -10.5,8.8 -29.6,8.1 -41.9,4.2 -12.6,-4 -22.9,-11.7 -28,-24.1 -0.4,-1 -2.2,-1 -2.1,0.3 1.7,13.1 13.6,21.8 25.1,26.3 13.9,5.4 31.6,6 45.1,-0.9 12.6,-6.4 12,-20.3 11.6,-32.5 -0.3,-9 -0.3,-18 -2.3,-26.8 -2.2,-9.6 -6.1,-18.7 -8.3,-28.3 0,-1 -1.4,-0.5 -1.2,0.4 z"
             id="path38"
             inkscape:connector-curvature="0"
             style="fill:#893886" /></g></g><g
         id="g48"><g
           id="g46"><path
             class="st3"
             d="m 159.7,338.1 c 12,2.1 21.2,-5.4 28.1,-14.4 7.8,-10.3 13.9,-21.5 22.8,-31 0.9,-0.9 -0.2,-2.2 -1.3,-1.7 -9.7,4.8 -15.2,16.6 -21,25.2 -7,10.4 -15.1,19.7 -28.5,20.6 -0.6,0 -0.9,1.2 -0.1,1.3 z"
             id="path44"
             inkscape:connector-curvature="0"
             style="fill:#893886" /></g></g><g
         id="g54"><g
           id="g52"><path
             class="st3"
             d="m 182,327.6 c -2.1,2 -4.1,4.1 -6.3,6 1,0.8 1.9,1.5 2.9,2.3 1.5,-2.4 3.5,-4 6.2,-4.9 -0.7,-0.9 -1.5,-1.9 -2.2,-2.8 -1.6,3.1 -3.8,5.4 -6.1,7.9 1,0.8 2.1,1.6 3.1,2.4 1.8,-3 4,-5 7.3,-6.3 -0.7,-1 -1.5,-1.9 -2.2,-2.9 -1.2,2.8 -3.1,4.8 -5.6,6.4 0.8,1 1.6,2.1 2.4,3.1 1.9,-2.3 3.9,-4.5 6.9,-5.3 -0.7,-1 -1.5,-1.9 -2.2,-2.9 -1.4,3.2 -3.7,5.5 -5.9,8.1 1,0.8 2.1,1.6 3.1,2.4 1.5,-2.2 3.1,-4.1 5.4,-5.4 -0.8,-0.6 -1.6,-1.3 -2.4,-1.9 -0.8,3.1 -3.5,5.1 -5.7,7.2 -1.5,1.4 0.7,3.4 2.2,2.2 2.8,-2.2 5.1,-4.9 7.9,-6.9 -0.8,-0.6 -1.6,-1.2 -2.4,-1.8 -1.1,3.7 -4,6.1 -6.6,8.8 0.9,0.9 1.8,1.8 2.7,2.7 2,-2.2 4,-4.4 6.5,-6.2 -1,-0.6 -2,-1.1 -3,-1.7 -0.1,2.8 -2.2,5 -3.9,7 -1.3,1.6 0.5,4.5 2.4,3.1 2.8,-2.1 5,-4.8 7.8,-6.7 -1,-0.7 -1.9,-1.5 -2.9,-2.2 -1,3.7 -4,6.3 -5.5,9.8 -0.8,1.9 1.4,4.1 3.1,2.4 2.4,-2.5 4.4,-5.3 7.3,-7.3 -1,-0.6 -2,-1.1 -3,-1.7 -0.2,2.9 -2.4,5.3 -3.9,7.6 -1.3,1.9 1.6,4 3.1,2.4 2.5,-2.5 4.8,-5.3 7.3,-7.8 -1.1,-0.3 -2.2,-0.6 -3.3,-0.9 1.1,3.1 -3.2,7.3 -4.7,9.9 -1.3,2.3 1.9,4 3.4,2 2.1,-2.8 4.1,-5.7 6.6,-8.1 -1.1,-0.5 -2.3,-0.9 -3.4,-1.4 -0.2,3.8 -2.8,7 -3.9,10.5 -0.7,2.2 2.5,3.4 3.6,1.5 1.6,-2.6 2.6,-5.6 5.3,-7.3 -1,-0.6 -2,-1.1 -3,-1.7 -0.3,3 -1.8,5.7 -3,8.4 -1,2.3 2.1,4.2 3.4,2 1.5,-2.6 2.9,-5.7 5.4,-7.4 -1,-0.6 -2,-1.1 -3,-1.7 -0.3,3.5 -2,6.5 -3.3,9.7 -0.9,2.1 2.5,3.4 3.6,1.5 1.7,-2.8 2.9,-5.9 5.6,-8 -1.1,-0.6 -2.2,-1.3 -3.3,-1.9 -0.6,3.2 -2,6.2 -2.9,9.3 -0.6,2.3 2.4,3.3 3.6,1.5 1.7,-2.4 2.7,-5.2 4.5,-7.6 -1.1,0 -2.3,0 -3.4,0 1.2,2.1 -1.6,6 -2.3,8 -0.7,2.1 2.7,3.6 3.6,1.5 1.4,-3 2.7,-5.8 4.8,-8.4 -1.1,-0.3 -2.2,-0.6 -3.3,-0.9 0.5,2.3 -0.5,4.6 -1,6.8 -0.5,1.9 1.9,3.4 3.3,1.9 2.3,-2.4 2.8,-5.6 4.8,-8.2 -1.2,-0.2 -2.4,-0.3 -3.6,-0.5 0.7,2.2 0,4.5 -0.1,6.7 -0.1,1.9 2.9,2.8 3.7,1 1,-2.2 2,-4.3 3.4,-6.2 -1.2,-0.3 -2.5,-0.7 -3.7,-1 0.1,1.7 0.1,3.5 0.2,5.2 0.1,2.1 2.6,2.5 3.7,1 1.2,-1.7 2.1,-3.4 2.9,-5.3 -1.2,-0.2 -2.4,-0.3 -3.6,-0.5 0.5,2 0.5,3.7 0.4,5.8 -0.1,2.3 3.3,2.6 3.9,0.5 0.5,-1.8 1.2,-3.3 2.2,-4.8 -1.2,-0.3 -2.5,-0.7 -3.7,-1 0.3,1.6 0.2,3.2 -0.4,4.7 -0.6,2.1 2.7,3.6 3.6,1.5 1,-2.1 2,-4.1 3.1,-6.1 -1.2,-0.2 -2.4,-0.3 -3.6,-0.5 0.2,1.2 0.4,2.4 0.5,3.6 0.1,1.5 2.2,2.9 3.4,1.4 0.9,-1.2 1.9,-2.2 2.8,-3.4 -1.2,-0.2 -2.4,-0.3 -3.6,-0.5 0.4,1 0.8,2.1 1.1,3.1 0.3,1.4 2.3,2 3.3,0.9 1,-1.1 1.9,-2.2 2.7,-3.4 1.3,-2.1 -1.9,-3.9 -3.3,-1.9 -0.6,0.9 -1.4,1.8 -2.2,2.6 1.1,0.3 2.2,0.6 3.3,0.9 -0.3,-1.2 -0.6,-1.9 -1.1,-3.1 -0.6,-1.7 -2.6,-1.9 -3.6,-0.5 -0.7,0.8 -1.5,1.7 -2.1,2.6 1.1,0.5 2.3,0.9 3.4,1.4 -0.1,-1.6 -0.4,-3.1 -0.6,-4.7 -0.3,-1.7 -2.9,-1.9 -3.6,-0.5 -1,2 -2.1,4.1 -3.1,6.1 1.2,0.5 2.4,1 3.6,1.5 0.6,-2 0.8,-3.6 0.5,-5.8 -0.2,-2 -2.5,-2.7 -3.7,-1 -1.3,1.8 -2,3.6 -2.6,5.7 1.3,0.2 2.6,0.4 3.9,0.5 0.1,-2.4 0,-4.5 -0.5,-6.8 -0.4,-1.6 -2.9,-2.1 -3.6,-0.5 -0.9,1.9 -1.7,3.6 -2.9,5.3 1.2,0.3 2.5,0.7 3.7,1 0,-1.7 -0.1,-3.5 -0.2,-5.2 -0.1,-2.1 -2.6,-2.6 -3.7,-1 -1.4,2 -2.5,4 -3.4,6.2 1.2,0.3 2.5,0.7 3.7,1 0.1,-2.7 0.7,-5.1 0,-7.8 -0.5,-1.8 -2.6,-1.8 -3.6,-0.5 -1.7,2.3 -2.2,5.3 -4.1,7.4 1.1,0.6 2.2,1.3 3.3,1.9 0.8,-3.2 1.8,-5.6 1,-8.9 -0.3,-1.3 -2.4,-2.1 -3.3,-0.9 -2.3,2.8 -3.9,5.9 -5.4,9.2 1.2,0.5 2.4,1 3.6,1.5 1.2,-3.7 4,-7.2 1.9,-11.1 -0.8,-1.4 -2.6,-1.1 -3.4,0 -1.8,2.4 -2.8,5.1 -4.5,7.6 1.2,0.5 2.4,1 3.6,1.5 0.9,-3.2 2.3,-6.1 2.9,-9.3 0.4,-2 -1.7,-3.2 -3.3,-1.9 -2.9,2.3 -4.3,5.6 -6.2,8.8 1.2,0.5 2.4,1 3.6,1.5 1.5,-3.6 3.2,-6.8 3.5,-10.8 0.1,-1.4 -1.8,-2.5 -3,-1.7 -3.2,2.2 -4.9,5.6 -6.8,8.8 1.1,0.7 2.3,1.3 3.4,2 1.6,-3.4 3.2,-6.6 3.5,-10.4 0.2,-1.5 -1.8,-2.5 -3,-1.7 -3.4,2.2 -4.7,5.4 -6.7,8.8 1.2,0.5 2.4,1 3.6,1.5 1.3,-4 3.9,-7.2 4.1,-11.6 0.1,-1.7 -2.2,-2.6 -3.4,-1.4 -2.7,2.7 -4.9,5.9 -7.2,8.9 1.1,0.7 2.3,1.3 3.4,2 2.1,-3.7 6.8,-8.3 5.1,-12.9 -0.5,-1.4 -2.2,-2 -3.3,-0.9 -2.5,2.5 -4.8,5.3 -7.3,7.8 1,0.8 2.1,1.6 3.1,2.4 2.1,-3.1 4.2,-5.8 4.5,-9.6 0.1,-1.5 -1.8,-2.5 -3,-1.7 -3.2,2.2 -5.4,5.2 -8.1,7.9 1,0.8 2.1,1.6 3.1,2.4 1.7,-3.8 4.7,-6.7 5.9,-10.7 0.4,-1.6 -1.5,-3.3 -2.9,-2.2 -2.8,2 -5.1,4.7 -7.8,6.8 0.8,1 1.6,2.1 2.4,3.1 2.4,-2.9 4.9,-5.8 5,-9.8 0.1,-1.4 -1.7,-2.5 -3,-1.7 -2.8,1.9 -5,4.3 -7.3,6.8 -1.6,1.8 1,4.5 2.7,2.7 3,-3.1 5.8,-6.3 7,-10.6 0.3,-1.2 -1.2,-2.7 -2.4,-1.8 -3,2.3 -5.5,5.2 -8.5,7.5 0.7,0.7 1.5,1.5 2.2,2.2 2.7,-2.6 5.6,-4.9 6.7,-8.5 0.5,-1.5 -1.2,-2.5 -2.4,-1.9 -3,1.4 -5.2,3.7 -7.2,6.3 -1.3,1.8 1.6,4.1 3.1,2.4 2.5,-2.8 5,-5.4 6.5,-8.9 0.6,-1.5 -0.4,-3.4 -2.2,-2.9 -3.6,1.1 -6.2,3.5 -8.6,6.3 -1.4,1.6 0.4,4.3 2.4,3.1 3.1,-1.9 5.6,-4.4 7.1,-7.8 0.6,-1.3 -0.4,-3.7 -2.2,-2.9 -4.2,1.8 -7.3,4.1 -9.6,8.1 -1.1,1.9 1.6,4.1 3.1,2.4 2.5,-2.8 5,-5.3 6.7,-8.7 0.7,-1.4 -0.5,-3.5 -2.2,-2.8 -3.6,1.4 -6.4,3.5 -8.3,6.8 -1.1,1.8 1.5,3.8 2.9,2.3 2.1,-2.2 3.7,-4.7 5.5,-7.1 0.6,-1 -1.2,-2.3 -2.2,-1.4 z"
             id="path50"
             inkscape:connector-curvature="0"
             style="fill:#893886" /></g></g><g
         id="g60"><g
           id="g58"><path
             class="st3"
             d="m 194.4,315.5 c 0.4,-0.4 0.8,-0.8 1.2,-1.2 -0.6,-0.5 -1.2,-0.9 -1.8,-1.4 -1.1,2.6 -2.7,4.6 -4.5,6.8 -1.4,1.7 1,4.2 2.5,2.5 1.5,-1.7 2.9,-3.5 4.4,-5.2 -1,-0.6 -2.1,-1.2 -3.1,-1.8 -0.7,1.9 -1.7,3.5 -2.8,5.3 -1.1,1.8 1.5,3.9 3,2.3 0.8,-1.1 1.9,-2.1 3.1,-2.9 -0.9,-0.7 -1.9,-1.4 -2.8,-2.2 -0.8,2 -1.8,3.9 -2.8,5.8 -1.1,2.1 1.9,3.8 3.2,1.9 0.7,-1.5 1.9,-2.5 3.4,-3.2 -0.7,-0.7 -1.4,-1.4 -2.1,-2.1 -0.2,1.5 -0.7,2.8 -1.5,4 -1.1,1.9 1.6,3.3 2.8,1.7 0.9,-1.1 1.8,-2.2 2.8,-3.1 -0.8,-0.5 -1.6,-0.9 -2.4,-1.4 -0.4,1.3 -0.9,2.5 -1.5,3.6 -0.7,1.3 1,2.6 2.1,1.6 0.9,-0.8 1.8,-1.5 2.6,-2.4 -0.6,-0.3 -1.3,-0.5 -1.9,-0.8 -0.2,1.8 -0.7,3.3 -1.7,4.8 -0.6,1.1 0.8,2.2 1.7,1.3 1.2,-1 2.3,-2 3.6,-2.9 -0.5,-0.4 -1,-0.7 -1.4,-1.1 -0.5,1.5 -1,3 -1.7,4.5 -0.4,0.9 0.7,2 1.4,1.1 0.8,-0.9 1.6,-1.7 2.6,-2.3 -0.5,-0.4 -0.9,-0.7 -1.4,-1.1 -0.3,1.5 -0.4,3 -0.8,4.5 -0.3,1 1,1.7 1.7,1 0.9,-0.9 2,-1.6 3.2,-2 -0.5,-0.4 -1,-0.7 -1.5,-1.1 -0.3,1.4 -0.6,2.9 -1.1,4.3 -0.3,1 1,1.7 1.7,1 0.8,-0.8 1.7,-1.5 2.6,-2.3 -0.6,-0.3 -1.2,-0.5 -1.8,-0.8 -0.1,1.4 -0.4,2.7 -0.8,4.1 -0.3,0.9 0.8,1.8 1.6,1.2 0.9,-0.7 1.9,-1.2 2.9,-1.7 -0.5,-0.2 -1.1,-0.4 -1.6,-0.7 0.3,1.5 0.4,3 0.4,4.5 0,0.8 1,1.5 1.7,1 0.8,-0.6 1.6,-1.2 2.4,-1.8 -0.6,-0.3 -1.1,-0.6 -1.7,-1 0,1 0.2,1.8 0.3,2.8 0,0.6 0.5,1 1.1,1.1 2.4,0.2 3.5,1.1 6,1 0.7,0 0.7,-1.1 0,-1 -0.9,-0.4 -1.8,-0.8 -2.7,-1.2 -0.2,-0.4 -0.4,-0.6 -0.9,-0.7 -1.7,-0.2 -1.4,-0.2 -1.5,-2.1 0,-0.8 -0.9,-1.5 -1.7,-1 -0.8,0.6 -1.6,1.2 -2.4,1.8 0.6,0.3 1.1,0.6 1.7,1 0.1,-1.8 -0.2,-3.3 -0.4,-5.1 -0.1,-0.7 -1.1,-1 -1.6,-0.7 -1,0.6 -2,1.1 -2.9,1.7 0.5,0.4 1.1,0.8 1.6,1.2 0.5,-1.6 0.6,-2.9 0.8,-4.7 0.1,-1 -1.2,-1.3 -1.8,-0.8 -0.9,0.8 -1.7,1.5 -2.5,2.4 0.6,0.3 1.1,0.7 1.7,1 0.4,-1.4 0.6,-2.9 1.1,-4.3 0.2,-0.7 -0.5,-1.5 -1.2,-1.2 -1.6,0.6 -2.6,1.1 -3.8,2.4 0.6,0.3 1.1,0.6 1.7,1 0.4,-1.5 0.5,-3 0.7,-4.5 0.1,-0.7 -0.7,-1.6 -1.4,-1.1 -1.1,0.9 -2,1.5 -2.9,2.6 0.5,0.3 1,0.6 1.5,0.9 0.6,-1.5 1.2,-3 1.8,-4.4 0.4,-0.9 -0.4,-1.8 -1.3,-1.3 -1.6,0.8 -2.9,1.8 -4.2,3 0.6,0.4 1.1,0.9 1.7,1.3 1.1,-2 1.9,-3.6 2.1,-5.9 0.1,-0.8 -1,-1.4 -1.7,-1 -1.1,0.7 -2.1,1.5 -3.1,2.4 0.7,0.5 1.4,1.1 2.1,1.6 0.9,-1.6 1,-2 1.8,-3.9 0.7,-1.5 -0.9,-2.7 -2.2,-1.7 -1.3,1 -2.3,1.9 -3.4,3.1 0.9,0.7 1.7,1.3 2.6,2 1,-1.6 1.5,-3 2,-4.8 0.3,-1.3 -0.8,-2.5 -2.1,-2.1 -2.6,0.7 -4.1,2.5 -5.6,4.6 1.1,0.6 2.1,1.2 3.2,1.9 1.3,-2.2 2.4,-4.3 3.3,-6.6 0.8,-2 -1.9,-2.9 -3.2,-1.9 -1.3,1 -2.4,2 -3.4,3.2 1,0.8 2,1.5 3,2.3 1.2,-2 2.2,-4 3.1,-6.2 0.6,-1.7 -1.9,-3.2 -3.1,-1.8 -1.6,1.9 -3,3.8 -4.5,5.8 1,0.6 2,1.2 3,1.8 1.7,-2.6 3.5,-5.1 3.9,-8.3 0.2,-1.4 -1.8,-1.4 -2.3,-0.3 -0.2,0.5 -0.4,1 -0.5,1.6 -0.8,0.8 0.1,1.4 0.6,0.8 z"
             id="path56"
             inkscape:connector-curvature="0"
             style="fill:#893886" /></g></g><g
         id="g66"><g
           id="g64"><path
             class="st3"
             d="m 219.4,343.5 c 0.7,0 0.7,-1 0,-1 -0.7,-0.1 -0.7,1 0,1 z"
             id="path62"
             inkscape:connector-curvature="0"
             style="fill:#893886" /></g></g><g
         id="g72"><g
           id="g70"><path
             class="st3"
             d="m 219.3,343.2 c 0.7,0.2 1.4,0.5 2,0.9 0.1,0.1 0.3,-0.1 0.2,-0.2 -0.6,-0.5 -1.3,-0.9 -2,-1.2 -0.4,-0.1 -0.5,0.4 -0.2,0.5 z"
             id="path68"
             inkscape:connector-curvature="0"
             style="fill:#893886" /></g></g><g
         id="g78"><g
           id="g76"><path
             class="st3"
             d="m 221.4,343.9 c 1.6,1.2 2.8,1.4 4.7,0.7 -0.5,-0.1 -1,-0.3 -1.5,-0.4 3,2.6 6.5,2.8 10.1,1.4 2.8,-1.1 6.8,-3.2 6.9,-6.6 0,-0.7 -0.7,-1.2 -1.4,-1.1 -2,0.5 -3.5,2.2 -5.3,3.2 -2.6,1.5 -5.8,2.3 -8.6,0.7 -0.4,-0.3 -1.1,-0.3 -1.5,0 -0.9,0.6 -2.3,0.7 -3.3,0.9 -0.6,0.1 -0.5,1 -0.1,1.2 z"
             id="path74"
             inkscape:connector-curvature="0"
             style="fill:#893886" /></g></g><g
         id="g84"><g
           id="g82"><path
             class="st3"
             d="m 173.6,333.8 c -0.8,-3.1 -3.1,-5.5 -4.7,-8.2 -2.2,-3.6 -4,-7.4 -5.3,-11.5 -0.4,-1.2 -0.7,-2.3 -1,-3.5 -0.6,-2.7 -1.1,-3.6 1.6,-4.8 2.7,-1.2 2.9,-0.2 5.2,1.3 1.1,0.7 2,1.2 3.3,1.6 1,0.3 1.4,-1 0.7,-1.6 -2.8,-2.1 -6,-6.2 -9.9,-6 -3.7,0.2 -5.2,3.9 -5.1,7.1 0.2,4.5 2.1,9.1 4,13.1 2.1,4.4 5.5,10.8 10.1,13.1 0.6,0.5 1.3,0 1.1,-0.6 z"
             id="path80"
             inkscape:connector-curvature="0"
             style="fill:#893886" /></g></g><g
         id="g90"><g
           id="g88"><path
             class="st3"
             d="m 172.4,307.7 c 0.1,0 0.3,0 0.4,0 0.3,0.1 0.7,0 0.8,-0.2 0.9,-1.1 0.6,-4.8 2.3,-4.7 2.3,0.2 2.9,3.4 4.7,4.2 0.2,0.1 0.5,-0.1 0.6,-0.3 0.8,-1.3 -0.6,-3.1 -1.4,-4 -1.1,-1.2 -2.6,-2.3 -4.3,-2.2 -1.5,0.1 -2.6,1.2 -3,2.6 -0.2,0.8 -0.3,1.6 -0.3,2.3 0,0.2 0,1.8 0,1.8 -0.2,0.2 0,0.5 0.2,0.5 z"
             id="path86"
             inkscape:connector-curvature="0"
             style="fill:#893886" /></g></g><g
         id="g96"><g
           id="g94"><path
             class="st3"
             d="m 180.3,306.1 c 1.2,-0.8 2.6,-1.9 4,-0.9 1,0.7 1.6,2 2.2,3 1.1,1.6 3.7,5.2 6,3.8 0.4,-0.3 0.7,-0.8 0.5,-1.3 -0.6,-1.4 -2.3,-1.9 -3.2,-3.1 -1,-1.2 -1.8,-2.6 -2.9,-3.8 -2.5,-2.5 -5.5,-1.3 -7.5,1.1 -0.6,0.7 0.1,1.7 0.9,1.2 z"
             id="path92"
             inkscape:connector-curvature="0"
             style="fill:#893886" /></g></g><g
         id="g102"><g
           id="g100"><path
             class="st3"
             d="m 267.4,124.3 c 4.6,-6.6 9.7,-13.4 17.7,-16 6.1,-2 0.5,4.4 -1.8,6 -2.6,1.8 -5.4,3.1 -7.3,5.7 -0.7,0.9 0.7,1.8 1.5,1.2 4.2,-3.4 10.1,-5.5 12.6,-10.6 1.2,-2.4 1.3,-5 -1.8,-5.5 -3.7,-0.6 -8.8,2.8 -11.5,4.7 -4.8,3.6 -8,8.5 -10.6,13.9 -0.2,0.7 0.8,1.2 1.2,0.6 z"
             id="path98"
             inkscape:connector-curvature="0"
             style="fill:#893886" /></g></g><g
         id="g108"><g
           id="g106"><path
             class="st3"
             d="m 277.2,122 c 3.1,-1.5 7.9,-1.8 11.2,-1.2 0.7,0.1 1.9,0.3 2.4,0.9 1.3,1.4 -1,1.6 -2.1,1.8 -3.1,0.5 -6.4,-0.4 -9.5,0.4 -0.6,0.2 -0.6,1.1 0,1.2 3.4,1 10.1,1.5 13.2,-0.7 1.8,-1.3 0.9,-3.5 -0.8,-4.6 -3.6,-2.2 -12.2,-2 -15.2,1.2 -0.4,0.6 0.2,1.3 0.8,1 z"
             id="path104"
             inkscape:connector-curvature="0"
             style="fill:#893886" /></g></g><g
         id="g114"><g
           id="g112"><path
             class="st3"
             d="m 279.7,125 c 3,0.5 4.8,2.3 5.2,5.4 0.1,0.7 0.2,2.3 -0.5,2.8 -0.8,0.6 -2.1,-0.7 -2.9,-0.8 -0.4,-0.1 -0.9,0.3 -0.8,0.8 0.5,1.6 2.8,2.7 4.4,2 1.5,-0.7 1.9,-2.5 1.8,-4 -0.1,-3.5 -3.1,-8.6 -7.3,-7.2 -0.3,0.1 -0.4,0.9 0.1,1 z"
             id="path110"
             inkscape:connector-curvature="0"
             style="fill:#893886" /></g></g><g
         id="g120"><g
           id="g118"><path
             class="st3"
             d="m 290.4,124.7 c 30.2,3.3 34,38.2 34.9,62.7 0.7,19.7 1.3,39.2 3.5,58.8 2.6,22.9 6.5,45.7 8.7,68.7 1.1,11.6 2.4,24.7 -1.5,35.9 -3.3,9.7 -10.9,17.7 -17.8,25.1 -0.8,0.9 0.4,2 1.3,1.3 6.7,-6 13.8,-11.7 18,-19.9 4.7,-9 5.2,-19.4 4.9,-29.4 -0.7,-24.7 -5.9,-49.5 -8.9,-74.1 -2.7,-22.2 -3.6,-44.2 -4.5,-66.4 -0.5,-13.8 -1.8,-28.2 -7.1,-41.2 -5.4,-13.4 -16.2,-24.2 -31.6,-22.9 -0.8,0 -0.8,1.3 0.1,1.4 z"
             id="path116"
             inkscape:connector-curvature="0"
             style="fill:#893886" /></g></g><g
         id="g126"><g
           id="g124"><path
             class="st3"
             d="m 207.2,368.4 c 5.5,7.9 13.2,13.9 21.6,18.4 4.1,2.2 8.5,4.1 12.9,5.6 2.3,0.8 5.6,1.2 7.6,2.3 1.2,0.7 1.8,2 2.8,3 0.7,0.7 1.9,0 1.6,-1 -0.3,-1.1 -0.9,-2.5 -1,-3.6 -0.1,-0.5 -0.6,-0.9 -1.1,-1.1 -16.3,-5.6 -31.1,-11.9 -43.3,-24.6 -0.5,-0.6 -1.6,0.2 -1.1,1 z"
             id="path122"
             inkscape:connector-curvature="0"
             style="fill:#893886" /></g></g><g
         id="g132"><g
           id="g130"><path
             class="st3"
             d="m 253.3,397.9 c 4.7,-4.2 10,-6.1 16.3,-6.2 2.8,0 5.7,0.3 8.4,1.2 2.8,1 4.5,2.9 6.9,4.4 0.7,0.5 1.6,-0.3 1.4,-1.1 -1.5,-6.5 -12,-7.7 -17.3,-7.4 -5.8,0.3 -14.3,2.4 -16.7,8.5 -0.2,0.6 0.6,1 1,0.6 z"
             id="path128"
             inkscape:connector-curvature="0"
             style="fill:#893886" /></g></g><g
         id="g138"><g
           id="g136"><path
             class="st3"
             d="m 286.5,397.3 c 3.7,-7.1 14,-9.6 21,-12.5 7.2,-2.9 14.9,-6.9 18.4,-14.2 0.3,-0.7 -0.4,-1.7 -1.2,-1.2 -4.2,3 -7.7,6.7 -12.3,9.2 -3.8,2.1 -7.8,3.5 -11.8,5.3 -5.8,2.6 -14.6,5.6 -15.5,13 0,0.8 1.1,1.1 1.4,0.4 z"
             id="path134"
             inkscape:connector-curvature="0"
             style="fill:#893886" /></g></g><g
         id="g144"><g
           id="g142"><path
             class="st3"
             d="m 251.4,395.5 c 0,4 -10.9,2.5 -13.9,2.3 -5.5,-0.2 -13.9,-1.4 -16.7,4.8 -0.4,1 0.7,2 1.5,1.2 5.4,-4.9 16.3,-1.6 23.2,-2 2.7,-0.2 11.6,-2.8 6.9,-6.8 -0.3,-0.3 -1,-0.1 -1,0.5 z"
             id="path140"
             inkscape:connector-curvature="0"
             style="fill:#893886" /></g></g><g
         id="g150"><g
           id="g148"><path
             class="st3"
             d="m 227.9,405 c 3.4,-3.1 8.2,-2.9 12.3,-4.5 0.5,-0.2 0.7,-0.9 0.2,-1.3 -3.3,-2 -15.3,-0.1 -14.4,5.3 0.1,0.9 1.3,1 1.9,0.5 z"
             id="path146"
             inkscape:connector-curvature="0"
             style="fill:#893886" /></g></g><g
         id="g156"><g
           id="g154"><path
             class="st3"
             d="m 232.5,406.5 c 4.2,-2.3 7,-3.6 11.8,-4.2 4.2,-0.5 7.1,-0.5 11,1.3 0.7,0.3 1.5,-0.2 1.3,-1 -0.9,-5 -8.2,-3.9 -11.8,-3.5 -5.2,0.6 -10.6,1.3 -13.4,6.4 -0.4,0.6 0.3,1.4 1.1,1 z"
             id="path152"
             inkscape:connector-curvature="0"
             style="fill:#893886" /></g></g><g
         id="g162"><g
           id="g160"><path
             class="st3"
             d="m 285.3,396.5 c -4.7,4 4.1,6.7 6.9,6.8 7,0.4 17.8,-3 23.2,2 0.8,0.8 2,-0.2 1.5,-1.2 -2.8,-6.2 -11.2,-5.1 -16.7,-4.8 -3,0.1 -13.9,1.6 -13.9,-2.3 0,-0.6 -0.6,-0.8 -1,-0.5 z"
             id="path158"
             inkscape:connector-curvature="0"
             style="fill:#893886" /></g></g><g
         id="g168"><g
           id="g166"><path
             class="st3"
             d="m 311.8,405.9 c 0.8,-5.4 -11.1,-7.2 -14.4,-5.3 -0.6,0.3 -0.4,1.1 0.2,1.3 4.1,1.7 8.8,1.4 12.3,4.5 0.5,0.6 1.7,0.5 1.9,-0.5 z"
             id="path164"
             inkscape:connector-curvature="0"
             style="fill:#893886" /></g></g><g
         id="g174"><g
           id="g172"><path
             class="st3"
             d="m 306.4,406.9 c -2.8,-5 -8.2,-5.8 -13.4,-6.4 -3.6,-0.4 -10.8,-1.5 -11.8,3.5 -0.2,0.8 0.6,1.3 1.3,1 4,-1.8 6.8,-1.8 11,-1.3 4.8,0.6 7.6,2 11.8,4.2 0.7,0.5 1.5,-0.3 1.1,-1 z"
             id="path170"
             inkscape:connector-curvature="0"
             style="fill:#893886" /></g></g><g
         id="g180"><g
           id="g178"><path
             class="st3"
             d="m 334.8,277.6 c 1.6,7.9 4.9,15.4 7.6,23 2.7,7.7 4.7,15.4 5.9,23.5 1.3,8.6 1.4,17.3 -3,25.2 -4,7.1 -11,10.7 -16.2,16.6 -0.6,0.7 0.2,1.8 1,1.3 6.3,-3.7 13.5,-8.3 17.6,-14.5 4.6,-6.9 5.8,-15.3 5.1,-23.5 -0.7,-8.6 -2.3,-17.4 -5.5,-25.5 -3.5,-8.9 -7.8,-17.5 -11.3,-26.4 -0.3,-0.7 -1.4,-0.5 -1.2,0.3 z"
             id="path176"
             inkscape:connector-curvature="0"
             style="fill:#893886" /></g></g><g
         id="g186"><g
           id="g184"><path
             class="st3"
             d="m 339.7,346.4 c -0.4,1 -0.6,1.9 -0.7,2.9 -0.1,1.1 1.5,1.4 2,0.5 0.9,-1.4 1.5,-3.1 2.8,-4.2 -0.9,-0.4 -1.7,-0.7 -2.6,-1.1 -0.2,1.4 -0.3,2.8 -0.5,4.2 -0.2,1.8 2.4,2.3 3.2,0.9 0.8,-1.5 1.5,-3 2.4,-4.5 -1.1,-0.3 -2.2,-0.6 -3.4,-0.9 -0.2,1.4 -0.1,2.6 0.2,4 0.3,1.5 2.2,1.7 3.1,0.8 0.9,-0.8 1.7,-1.8 2.5,-2.8 -0.9,0 -1.8,0 -2.8,0 0.9,1 2.8,1.5 3.6,-0.1 0.3,-0.6 0.3,-1.5 -0.3,-2 0,0 0,0 0,0 -0.5,-0.5 -1.2,-0.6 -1.9,-0.2 -0.2,0.1 -0.4,0.3 -0.5,0.5 0.4,-0.3 0.9,-0.5 1.3,-0.8 0,0 0,0 0,0 0.5,0.3 0.9,0.5 1.4,0.8 -0.2,-0.4 -0.5,-0.7 -0.8,-1.1 -0.7,-0.7 -2.1,-0.8 -2.8,0 -0.8,0.9 -1.6,1.9 -2.4,2.9 1,0.3 2.1,0.6 3.1,0.8 -0.3,-1 -0.3,-1.9 -0.2,-3 0.1,-1.8 -2.5,-2.4 -3.4,-0.9 -0.8,1.5 -1.5,3 -2.2,4.6 1.1,0.3 2.1,0.6 3.2,0.9 -0.2,-1.4 0.2,-2.8 0.1,-4.2 -0.1,-1.5 -2,-2.1 -2.8,-0.8 -1,1.6 -1.5,3.3 -2.2,5 0.7,0.2 1.3,0.4 2,0.5 -0.1,-0.9 -0.1,-1.7 -0.1,-2.6 0.2,-0.4 -1,-0.8 -1.3,-0.1 z"
             id="path182"
             inkscape:connector-curvature="0"
             style="fill:#893886" /></g></g><g
         id="g192"><g
           id="g190"><path
             class="st3"
             d="m 339.8,340.2 c 1.3,2.4 3.9,1.9 6,0.9 1.8,-0.9 5.1,-2.9 5.4,-5.2 0,-0.3 -0.2,-0.7 -0.6,-0.6 -2.7,0.9 -6.7,7.2 -9.7,3.9 -0.6,-0.6 -1.5,0.3 -1.1,1 z"
             id="path188"
             inkscape:connector-curvature="0"
             style="fill:#893886" /></g></g><g
         id="g198"><g
           id="g196"><path
             class="st3"
             d="m 307.4,196.3 c 0,0 0,-0.1 0,0 -0.1,-0.1 -0.1,0 0,0 z"
             id="path194"
             inkscape:connector-curvature="0"
             style="fill:#893886" /></g></g><g
         id="g204"><g
           id="g202"><path
             class="st3"
             d="m 212.6,148.5 c 8.8,0.5 17.8,0.1 26.6,-0.2 8.1,-0.3 17.2,-1.1 25.1,1 3.7,1 4.8,-4.2 1.5,-5.6 -3.3,-1.4 -7.2,-1.3 -10.7,-1.5 -5.3,-0.2 -10.6,-0.2 -15.9,0.1 -8.8,0.5 -19.1,0.4 -27.2,4.3 -0.8,0.5 -0.3,1.8 0.6,1.9 z"
             id="path200"
             inkscape:connector-curvature="0"
             style="fill:#893886" /></g></g><g
         id="g210"><g
           id="g208"><path
             class="st3"
             d="m 224.9,144.6 c -4,-0.8 -9.2,-1.3 -12.5,1.7 -4.1,3.6 -4,10.3 -4.1,15.3 -0.2,8.5 -2.5,18.5 3.2,25.7 3.1,3.9 7.9,4.2 12.5,4.7 8.6,0.9 17.3,0.5 25.9,0.6 5.7,0 12.5,1.5 17.2,-2.5 3.8,-3.2 4.9,-8.6 5.5,-13.4 1.1,-8.2 0.3,-16.8 -0.6,-25 -0.6,-5.5 -3.8,-9.5 -9.7,-7.8 -1.3,0.4 -2.2,2.4 -0.9,3.4 1.6,1.3 3.7,1.6 4.5,3.6 1.2,2.9 0.7,7.5 0.9,10.6 0.5,6.1 0.7,12.5 -0.8,18.5 -0.9,3.4 -2,5.9 -5.7,6.7 -2.9,0.6 -6,0.1 -9,0 -7.2,-0.2 -14.7,-0.5 -21.9,-0.1 -5.7,0.3 -13.5,2.7 -15.1,-4.6 -0.9,-3.9 -0.8,-8 -0.6,-12 0.2,-4.3 0.2,-8.7 0.5,-13 0.2,-3.1 0.7,-6.2 3.5,-7.9 2,-1.2 4.8,-1.5 7,-2.3 1.2,-0.3 1.4,-1.9 0.2,-2.2 z"
             id="path206"
             inkscape:connector-curvature="0"
             style="fill:#893886" /></g></g><g
         id="g216"><g
           id="g214"><path
             class="st3"
             d="m 354.1,146.6 c -8.1,-3.8 -18.4,-3.8 -27.1,-4.3 -5,-0.3 -9.9,-0.3 -14.9,-0.1 -3.9,0.1 -8.1,0 -11.7,1.5 -3.3,1.4 -2.2,6.5 1.5,5.6 7.9,-2.1 17,-1.3 25.1,-1 8.8,0.3 17.8,0.8 26.7,0.2 0.8,-0.1 1.4,-1.4 0.4,-1.9 z"
             id="path212"
             inkscape:connector-curvature="0"
             style="fill:#893886" /></g></g><g
         id="g222"><g
           id="g220"><path
             class="st3"
             d="m 341.3,146.8 c 2.2,0.8 5,1.2 7,2.3 2.8,1.6 3.3,4.9 3.5,7.9 0.3,4 0.2,8 0.5,12 0.3,4.3 0.2,8.4 -0.5,12.6 -1.3,7.5 -8.2,5.5 -14.2,5.1 -7.1,-0.4 -14.3,0 -21.3,0 -6.3,0 -13.5,2.1 -15.9,-5.4 -1.8,-5.7 -1.7,-12 -1.3,-17.9 0.2,-3.3 0.4,-6.7 0.8,-10 0.2,-1.6 0.2,-3 1.5,-4.1 0.8,-0.7 2.1,-0.9 3,-1.6 1.3,-1 1.3,-3.2 -0.5,-3.7 -4.2,-1.2 -8,0.5 -9.2,4.8 -0.9,3 -0.8,6.3 -1,9.3 -0.4,4.4 -0.7,8.8 -0.6,13.2 0.2,5.3 0.7,11.5 3.7,16.1 3.2,5 8.6,5.7 14.1,5.5 8,-0.3 16.1,-0.3 24.1,-0.5 5.5,-0.1 13.3,0.3 18,-3.2 7.2,-5.5 5.5,-15.9 5.2,-23.7 -0.3,-5.6 0.5,-12.3 -2.7,-17.3 -3,-4.7 -9.2,-4.5 -14,-3.5 -1.3,0.2 -1.1,1.7 -0.2,2.1 z"
             id="path218"
             inkscape:connector-curvature="0"
             style="fill:#893886" /></g></g><g
         id="g228"><g
           id="g226"><path
             class="st3"
             d="m 270.5,159.2 c 3.2,2.6 8.8,0.7 12.7,0.8 4,0.1 7.7,1.1 11.7,1.6 1.9,0.2 3.3,-2.4 2.3,-3.9 -2.7,-3.7 -8.8,-3.4 -12.9,-3.6 -4.2,-0.2 -12.4,-1.3 -14.1,3.8 -0.2,0.4 -0.1,1 0.3,1.3 z"
             id="path224"
             inkscape:connector-curvature="0"
             style="fill:#893886" /></g></g><g
         id="g234"><g
           id="g232"><path
             class="st3"
             d="m 216.5,148.9 c 1.6,4.2 5.4,7 8.6,10 3.2,2.9 7.2,6.7 11.3,8.1 0.8,0.3 1.6,-0.7 1.1,-1.4 -2.3,-3.4 -7,-5.4 -10.2,-8 -3.5,-2.9 -6.9,-5.6 -9.7,-9.2 -0.4,-0.7 -1.4,-0.1 -1.1,0.5 z"
             id="path230"
             inkscape:connector-curvature="0"
             style="fill:#893886" /></g></g><g
         id="g240"><g
           id="g238"><path
             class="st3"
             d="m 349.4,148.6 c -4.8,1.4 -9,4.6 -13.4,7 -3.6,2 -7.5,3.6 -10.3,6.7 -0.8,0.9 0.4,2 1.3,1.3 3.3,-2.7 7.3,-4.2 10.9,-6.4 4,-2.4 8.3,-4.5 12.2,-7 0.8,-0.5 0.3,-1.9 -0.7,-1.6 z"
             id="path236"
             inkscape:connector-curvature="0"
             style="fill:#893886" /></g></g><g
         id="g246"><g
           id="g244"><path
             class="st3"
             d="m 276.2,180.5 c 0.9,-0.2 1.8,-0.8 2.7,-1 1.4,-0.3 2.8,-0.3 4.2,-0.2 1.3,0.1 2.6,0.3 3.8,0.8 0.9,0.3 1.7,1 2.6,1 0.3,0 0.6,-0.3 0.6,-0.6 0.1,-4.4 -13.7,-4.8 -14.3,-0.3 -0.2,0.2 0.1,0.3 0.4,0.3 z"
             id="path242"
             inkscape:connector-curvature="0"
             style="fill:#893886" /></g></g><g
         id="g252"><g
           id="g250"><path
             class="st3"
             d="m 276.3,179.6 c -4.9,1.8 2.4,11.6 5.6,12.2 3.3,0.6 5.5,-2.8 6.8,-5.3 1,-1.7 3.9,-6 1,-7.4 -0.8,-0.4 -1.8,0.4 -1.2,1.2 0.9,1.5 -0.8,3.7 -1.5,5.1 -1.1,1.9 -2.9,5.4 -5.6,4 -2.9,-1.5 -5.6,-6.3 -4.6,-9.4 0.1,-0.2 -0.2,-0.5 -0.5,-0.4 z"
             id="path248"
             inkscape:connector-curvature="0"
             style="fill:#893886" /></g></g><g
         id="g258"><g
           id="g256"><path
             class="st3"
             d="m 276.1,180.4 c -0.8,-2.2 -0.8,-3.8 1.7,-4.7 1.1,-0.4 2.4,-0.5 3.6,-0.7 2.2,-0.3 4.1,-0.4 6,0.9 1.4,1 2.8,2.3 2.2,4.1 -0.2,0.5 0.4,0.9 0.8,0.7 2.1,-1 1,-3.3 -0.1,-4.6 -2.1,-2.4 -4.7,-3.5 -7.9,-3.1 -3.4,0.5 -10.8,3.4 -7.1,7.8 0.4,0.3 1,0 0.8,-0.4 z"
             id="path254"
             inkscape:connector-curvature="0"
             style="fill:#893886" /></g></g><g
         id="g264"><g
           id="g262"><path
             class="st3"
             d="m 277.1,177 c -0.1,0.5 0.3,1 0.6,1.4 0.4,0.4 0.8,0.6 1.4,0.6 0.7,0.1 1.2,-0.8 0.8,-1.4 -0.4,-0.6 -0.9,-1.4 -1.6,-1.5 -0.7,-0.2 -1.1,0.2 -1.2,0.9 z"
             id="path260"
             inkscape:connector-curvature="0"
             style="fill:#893886" /></g></g><g
         id="g270"><g
           id="g268"><path
             class="st3"
             d="m 285.7,175.9 c -0.7,0.6 -1.1,1.5 -0.6,2.4 0.4,0.7 1.4,0.6 1.8,0 0.3,-0.5 0.4,-1.2 0.2,-1.8 -0.1,-0.5 -0.9,-1 -1.4,-0.6 z"
             id="path266"
             inkscape:connector-curvature="0"
             style="fill:#893886" /></g></g><g
         id="g276"><g
           id="g274"><path
             class="st3"
             d="m 241.7,149.6 c 15.4,-4 19.4,13.5 19.7,25.2 0.2,9 -2.3,18.5 -6.7,26.3 -2.1,3.9 -4.9,7.4 -7.9,10.6 -2.4,2.5 -7.1,8.4 -11,7.7 -0.6,-0.1 -1.1,0.7 -0.4,1 2.5,1.1 4.6,-0.4 6.6,-2.1 3.8,-3.3 7.3,-6.8 10.3,-10.9 6.8,-9.4 9.7,-20.4 10.1,-31.8 0.5,-11.7 -5,-32.9 -20.8,-26.8 -0.6,0.2 -0.4,1 0.1,0.8 z"
             id="path272"
             inkscape:connector-curvature="0"
             style="fill:#893886" /></g></g><g
         id="g282"><g
           id="g280"><path
             class="st3"
             d="m 321.5,148.8 c -15.9,-6.1 -21.2,15.2 -20.8,26.8 0.4,11.4 3.3,22.5 10.1,31.8 2.9,3.9 6.2,7.3 9.9,10.5 2,1.8 4.2,3.7 7,2.5 0.6,-0.3 0.1,-1.1 -0.4,-1 -3.9,0.6 -8.6,-5.2 -11,-7.7 -3.1,-3.2 -5.8,-6.7 -7.9,-10.6 -4.4,-7.9 -6.9,-17.3 -6.7,-26.3 0.2,-11.7 4.2,-29.2 19.7,-25.2 0.4,0.2 0.6,-0.6 0.1,-0.8 z"
             id="path278"
             inkscape:connector-curvature="0"
             style="fill:#893886" /></g></g><path
         class="st3"
         d="m 252.4,158.7 c -2.7,-1.1 -6,-0.8 -8.4,0.9 0.6,0.9 1.2,1.8 1.8,2.7 0.5,0.7 1.1,1.5 1.5,2.3 0,0.1 0.1,0.1 0.1,0.2 0.7,1 1.3,2 2,3 0.2,0.3 -0.1,0.7 -0.4,0.8 -3.1,0.1 -5.8,-1.1 -8.6,-2.1 -0.1,1.3 -0.1,2.7 0,4 -0.3,1.8 -0.4,3.4 -0.3,4.5 0.5,7.7 9.4,12.3 14.9,5.9 4.4,-5.2 4.9,-19.2 -2.6,-22.2 z"
         id="path284"
         inkscape:connector-curvature="0"
         style="fill:#893886" /><path
         class="st3"
         d="m 317.7,158.7 c -2.7,-1.1 -6,-0.8 -8.4,0.9 0.6,0.9 1.2,1.8 1.8,2.7 0.5,0.7 1.1,1.5 1.5,2.3 0,0.1 0.1,0.1 0.1,0.2 0.7,1 1.3,2 2,3 0.2,0.3 -0.1,0.7 -0.4,0.8 -3.1,0.1 -5.8,-1.1 -8.6,-2.1 -0.1,1.3 -0.1,2.7 0,4 -0.3,1.8 -0.4,3.4 -0.3,4.5 0.5,7.7 9.4,12.3 14.9,5.9 4.4,-5.2 4.9,-19.2 -2.6,-22.2 z"
         id="path286"
         inkscape:connector-curvature="0"
         style="fill:#893886" /><g
         id="g292"><g
           id="g290"><path
             class="st3"
             d="m 236.9,138.8 c 2.1,-5.4 7.4,-10.6 13.5,-8.2 0.3,-1.9 0.5,-3.9 0.8,-5.8 -4.3,-0.1 -12.4,-0.1 -13.2,5.5 -0.1,0.9 0.4,2.2 1.6,2.1 1.9,-0.2 3.6,-0.9 5.4,-1.3 2,-0.4 4.1,-0.4 6.1,-0.4 3.6,0.1 3.8,-4.7 0.8,-5.8 -8.4,-3.2 -20.4,4.2 -17.6,13.9 0.5,1.3 2.1,1.2 2.6,0 z"
             id="path288"
             inkscape:connector-curvature="0"
             style="fill:#893886" /></g></g><g
         id="g298"><g
           id="g296"><path
             class="st3"
             d="m 325.3,138.6 c 7.1,-8.6 -4.1,-21.5 -13.6,-20.6 -1.8,0.2 -3.6,1.7 -2.9,3.7 1.2,3.5 4.1,5.1 7.3,6.7 1.7,0.9 3.1,1.9 4.2,3.6 1,1.6 1.7,3.1 3.5,3.9 0.8,0.4 1.7,-0.1 1.8,-1 0.3,-3.4 -1.1,-6.9 -3.6,-9.1 -1.9,-1.7 -6.5,-3.1 -7.4,-5.7 -1,1.2 -1.9,2.5 -2.9,3.7 7.8,-0.8 10.7,7.8 11.5,14.1 0.1,1 1.5,1.4 2.1,0.7 z"
             id="path294"
             inkscape:connector-curvature="0"
             style="fill:#893886" /></g></g><g
         id="g304"><g
           id="g302"><path
             class="st3"
             d="m 237.5,224 c -0.1,5.4 -1,10.8 -1.5,16.2 -0.5,4.6 -1.1,8.9 -2.3,13.3 -0.1,0.2 0.2,0.4 0.4,0.2 2.8,-3.1 2.9,-8.1 3.1,-12.1 0.2,-5.9 0.6,-11.7 0.6,-17.6 -0.1,-0.2 -0.3,-0.2 -0.3,0 z"
             id="path300"
             inkscape:connector-curvature="0"
             style="fill:#893886" /></g></g><g
         id="g310"><g
           id="g308"><path
             class="st3"
             d="m 232.1,258.2 c -0.4,0.4 -0.6,0.9 -0.4,1.4 0.1,0.2 0.3,0.1 0.4,0 0.3,-0.3 0.5,-0.6 0.7,-1 0.2,-0.3 -0.4,-0.8 -0.7,-0.4 z"
             id="path306"
             inkscape:connector-curvature="0"
             style="fill:#893886" /></g></g><g
         id="g316"><g
           id="g314"><path
             class="st3"
             d="m 231.2,262 c -0.2,0.3 -0.4,0.6 -0.4,1 0,0.2 0.2,0.4 0.3,0.3 0.5,0 0.7,-0.4 0.9,-0.8 0.3,-0.6 -0.5,-1.1 -0.8,-0.5 z"
             id="path312"
             inkscape:connector-curvature="0"
             style="fill:#893886" /></g></g><g
         id="g322"><g
           id="g320"><path
             class="st3"
             d="m 326.9,243.3 c 0.6,0.1 1.2,0.1 1.8,0.1 0.5,0 1,0.1 1.3,-0.3 0.1,-0.1 0.1,-0.3 0,-0.3 -0.4,-0.3 -0.9,-0.3 -1.3,-0.3 -0.6,0 -1.2,0 -1.8,0.1 -0.4,0.1 -0.4,0.7 0,0.7 z"
             id="path318"
             inkscape:connector-curvature="0"
             style="fill:#893886" /></g></g><g
         id="g328"><g
           id="g326"><path
             class="st3"
             d="m 327.1,248.6 c 1.4,0 2.7,0.4 4.1,0 0.3,-0.1 0.2,-0.4 -0.1,-0.4 -1.3,-0.2 -2.6,-0.5 -4,-0.4 -0.5,0 -0.5,0.8 0,0.8 z"
             id="path324"
             inkscape:connector-curvature="0"
             style="fill:#893886" /></g></g><g
         id="g334"><g
           id="g332"><path
             class="st3"
             d="m 335.8,342 c 0.5,0.5 1,1.3 1.7,1.5 0.2,0 0.4,-0.1 0.4,-0.3 0,-0.8 -1,-1.5 -1.6,-1.9 -0.4,-0.2 -0.8,0.4 -0.5,0.7 z"
             id="path330"
             inkscape:connector-curvature="0"
             style="fill:#893886" /></g></g><g
         id="g340"><g
           id="g338"><path
             class="st3"
             d="m 299.4,382.5 c 3.2,-0.2 6,-1.9 8.7,-3.5 3.3,-2 6.7,-3.9 9.6,-6.5 0.3,-0.3 -0.1,-0.9 -0.5,-0.6 -2.9,1.8 -5.6,3.8 -8.5,5.5 -2.9,1.8 -5.7,4.2 -9.3,4.5 -0.4,0.1 -0.4,0.6 0,0.6 z"
             id="path336"
             inkscape:connector-curvature="0"
             style="fill:#893886" /></g></g><g
         id="g346"><g
           id="g344"><path
             class="st3"
             d="m 294.9,320.8 c 0.1,0 0.1,-0.1 0,-0.1 -0.1,0 -0.1,0.1 0,0.1 z"
             id="path342"
             inkscape:connector-curvature="0"
             style="fill:#893886" /></g></g><g
         id="g352"><g
           id="g350"><path
             class="st3"
             d="m 246.4,298.1 c 0,0 0.1,0.1 0.1,0.1 0.1,0.1 0.3,0.1 0.4,0 0,0 0.1,-0.1 0.1,-0.1 0.3,-0.3 0.1,-0.8 -0.3,-0.8 -0.4,0.1 -0.5,0.5 -0.3,0.8 z"
             id="path348"
             inkscape:connector-curvature="0"
             style="fill:#893886" /></g></g><g
         id="g358"><g
           id="g356"><path
             class="st3"
             d="m 249.9,305.7 c 0,0.1 0,0 -0.1,-0.2 0,0.3 0,0.3 0.1,0.2 0,-0.3 0,-0.4 -0.1,-0.6 0,0.1 0,0.3 0,0.4 0.1,-0.3 0.2,-0.6 0.4,-0.8 0.1,-0.3 -0.3,-0.7 -0.6,-0.6 -1,0.3 -2.2,1.5 -1.4,2.6 0.7,0.9 2.3,0.1 1.7,-1 z"
             id="path354"
             inkscape:connector-curvature="0"
             style="fill:#893886" /></g></g><g
         id="g364"><g
           id="g362"><path
             class="st3"
             d="m 263.8,254.3 c 0,0.3 0.1,0.6 0.4,0.8 0.1,0.1 0.4,0.1 0.5,0 0.2,-0.2 0.3,-0.5 0.4,-0.8 0.1,-1 -1.5,-1 -1.3,0 z"
             id="path360"
             inkscape:connector-curvature="0"
             style="fill:#893886" /></g></g><g
         id="g370"><g
           id="g368"><path
             class="st3"
             d="m 218.8,372.9 c 1.1,3.2 4.4,5.3 7.3,6.9 3,1.7 6.8,3.6 10.3,4 0.3,0 0.4,-0.4 0.1,-0.5 -2.6,-1.8 -6.1,-2.5 -9.1,-3.8 -3.2,-1.5 -6.7,-3.3 -8.2,-6.7 -0.1,-0.4 -0.5,-0.2 -0.4,0.1 z"
             id="path366"
             inkscape:connector-curvature="0"
             style="fill:#893886" /></g></g><g
         id="g376"><g
           id="g374"><path
             class="st3"
             d="m 241.1,386.1 c -0.1,0 0.1,0 0.2,0 -0.1,-0.1 -0.2,-0.2 -0.3,-0.2 0,0 0,0 0.1,0.1 0.2,0.3 0.8,0.3 0.9,-0.1 0,0 0,-0.1 0,-0.1 0,-0.2 0,-0.4 -0.1,-0.6 -0.2,-0.2 -0.4,-0.2 -0.7,-0.2 -0.9,-0.1 -0.9,1.1 -0.1,1.1 z"
             id="path372"
             inkscape:connector-curvature="0"
             style="fill:#893886" /></g></g><g
         id="g382"><g
           id="g380"><path
             class="st3"
             d="m 230.6,299.2 c 1.2,3.6 0.8,7.1 1.5,10.7 0.1,0.3 0.5,0.3 0.5,0 0.7,-3.6 -0.4,-7.6 -1.8,-10.8 0,-0.2 -0.2,-0.1 -0.2,0.1 z"
             id="path378"
             inkscape:connector-curvature="0"
             style="fill:#893886" /></g></g><g
         id="g388"><g
           id="g386"><path
             class="st3"
             d="m 258.5,130.9 c 1.4,-0.7 2.7,-1.4 4.1,-2 1.6,-0.7 3.2,-0.9 4.9,-1.3 0.2,0 0.2,-0.4 0,-0.4 -3.2,-0.8 -6.5,2 -9.1,3.4 -0.3,0.2 -0.1,0.4 0.1,0.3 z"
             id="path384"
             inkscape:connector-curvature="0"
             style="fill:#893886" /></g></g><path
         class="st2"
         d="m 238.9,305.2 c -1.1,-8.1 -3.3,-16 -5.7,-23.7 -0.7,-2.3 -1.5,-4.7 -2.3,-7 -0.2,-0.6 -1.5,-3.7 -1.8,-5.4 0.5,-0.2 0.6,-0.9 0.1,-1.2 0,-0.1 0,-0.3 0,-0.4 0,-0.7 -0.8,-1.2 -1.4,-0.8 -0.1,0 -0.1,0.1 -0.2,0.1 -0.6,-0.2 -1.3,-0.1 -1.8,0.5 -0.1,0.1 -0.2,0.2 -0.3,0.3 -0.4,0.5 -0.5,1.1 -0.5,1.6 -0.2,1.2 0.1,2.3 -0.1,3.6 -0.3,1.9 -1.7,4.3 -2.9,6 -2.1,3 -5.1,5.7 -7.4,8.6 -3.4,4.3 -7.5,8.2 -11.1,12.3 -2.6,2.9 -4.7,6.2 -7.2,9.2 -4.8,6.1 -9.7,12 -13.9,18.6 -2.8,4.4 -5.8,6.3 -10.6,8.2 -2,0.8 -3.5,1.8 -5.8,1.8 -1.3,0 -2.4,-0.2 -3.6,0.1 -0.6,0.2 -1.2,0.7 -1.4,1.4 -1,4.8 3.3,8.3 6.5,11.2 4.2,3.9 8.5,8.1 13.5,10.7 3.2,1.7 5.4,3.3 9,4.2 3.2,0.7 6.7,1.5 9.9,1.9 3.3,0.3 6.8,-0.3 10.1,-0.5 3.3,-0.2 6.7,-0.4 10,-0.8 5.1,-0.7 9.3,-1.3 11.9,-6 2.6,-4.7 3.5,-10.4 4.8,-15.6 1.6,-6.5 2,-13.3 2.8,-19.9 0.9,-6.5 0.3,-12.7 -0.6,-19 z"
         id="path390"
         inkscape:connector-curvature="0"
         style="fill:#facbc0" /><path
         class="st2"
         d="m 348.9,325 c -0.2,-4.6 -0.5,-9.9 -2.1,-14.2 -0.9,-2.3 -1.5,-4.6 -2.6,-6.8 -1.1,-2.2 -2.8,-4.4 -3.5,-6.8 0,-0.1 0,-0.3 0,-0.4 -0.1,-0.2 -0.1,-0.3 -0.2,-0.5 -0.3,-0.7 -1.4,-1.1 -1.8,-0.2 -0.8,1.7 -0.6,3.4 0.1,5 -0.4,0.4 -0.7,1.1 -0.5,1.8 1.4,9.4 2.2,18.7 2.2,28.3 0,5 -0.1,9.6 -1.6,14.3 -1.1,3.6 -2.5,6.6 -2.4,10.4 0.1,2.1 3.5,2.8 3.9,0.5 0.5,-3.1 3,-4.7 4.5,-7.2 1,-1.7 1.4,-4 2,-5.8 1.7,-6.3 2.2,-11.9 2,-18.4 z"
         id="path392"
         inkscape:connector-curvature="0"
         style="fill:#facbc0" /></g></g><g
     id="Layer_4"
     transform="translate(0,-204.09998)" /></svg>